<?xml version="1.0" encoding="utf-8"?>
<!-- Generator: Adobe Illustrator 19.2.1, SVG Export Plug-In . SVG Version: 6.00 Build 0)  -->
<svg version="1.1" id="Camada_1" xmlns:sketch="http://www.bohemiancoding.com/sketch/ns"
	 xmlns="http://www.w3.org/2000/svg" xmlns:xlink="http://www.w3.org/1999/xlink" x="0px" y="0px" viewBox="0 0 208 140"
	 style="enable-background:new 0 0 208 140;" xml:space="preserve">
<style type="text/css">
	.st0{fill:#FFFFFF;}
</style>
<path id="Shape" sketch:type="MSShapeGroup" class="st0" d="M132.3,58.8c-6.3,3.2-10.2,3.8-12,3.8l0,0c-2.1,0-3.3-0.6-3.4-1.7
	c-0.2-1.9,3.2-4.9,11.4-7.1c3.2-0.9,6.7-1.3,10.1-1.3c1.2,0,2.5,0.1,3.8,0.1c0.9-0.7,1.8-1.2,2.8-2c-1.5-0.1-3.1-0.2-4.6-0.2
	c-4.1,0-8.3,0.5-12.6,1.5c-9,2.2-14,6.5-13.4,9.3c0.3,1.6,1.9,2.5,4.6,2.5l0,0c2.9,0,6.8-1.1,10.4-2.9c4.3-2.1,8.8-4.9,13.2-8.1
	h-0.3C138.7,55.5,135.7,57.1,132.3,58.8L132.3,58.8z"/>
<path id="Shape_1_" sketch:type="MSShapeGroup" class="st0" d="M142.7,52.7h0.3c0.9-0.7,1.8-1.3,2.6-2h-0.1
	C144.4,51.4,143.6,52.1,142.7,52.7L142.7,52.7z"/>
<path id="Shape_2_" sketch:type="MSShapeGroup" class="st0" d="M145.6,50.5L145.6,50.5L145.6,50.5h0.1c0.3-0.3,0.7-0.5,1-0.7
	c0,0,0-0.1-0.1-0.1C146.3,50,146,50.2,145.6,50.5L145.6,50.5z"/>
<path id="Shape_3_" sketch:type="MSShapeGroup" class="st0" d="M143.2,52.7c14.5,1.5,26,9.9,27.2,10.7l2.3-4.2
	c-10-4.9-18.7-7.7-26.8-8.5C145,51.4,144.1,52.1,143.2,52.7L143.2,52.7L143.2,52.7L143.2,52.7z"/>
<path id="Shape_4_" sketch:type="MSShapeGroup" class="st0" d="M142.4,52.7c0.2,0,0.4,0,0.6,0.1c1.1-0.8,2.1-1.5,2.9-2.2
	c-0.1,0-0.3,0-0.4-0.1C144.3,51.3,143.3,52.1,142.4,52.7L142.4,52.7z M142.9,52.7h-0.3c0.9-0.7,1.8-1.2,2.8-2h0.1
	C144.7,51.4,143.8,52.1,142.9,52.7L142.9,52.7z"/>
<path id="Shape_5_" sketch:type="MSShapeGroup" class="st0" d="M170.3,63.6l2.3-4.4c-10.4-5.1-19.1-7.8-26.9-8.6
	c-0.9,0.7-1.8,1.4-2.9,2.2C158.5,54.4,170.3,63.6,170.3,63.6L170.3,63.6z M145.8,50.7c8,0.8,16.7,3.6,26.7,8.5l-2.3,4.2
	c-1.2-0.9-12.6-9.2-27.2-10.7l0,0l0,0C144.1,52.1,145,51.4,145.8,50.7L145.8,50.7z"/>
<path id="Shape_6_" sketch:type="MSShapeGroup" class="st0" d="M132.3,58.8c-17.1,8.8-21.8-0.1-3.8-4.9c4.8-1.2,9.5-1.5,13.9-1.1
	c1-0.7,2-1.4,3-2.2c-6.2-0.6-11.9,0-17.5,1.3c-9.1,2.2-14.1,6.6-13.5,9.5c0.7,3.9,8.4,3,15.1-0.3c5.2-2.6,9.9-5.7,13.4-8.3
	c-0.2,0-0.4-0.1-0.6-0.1C138.7,55.3,135.6,57,132.3,58.8L132.3,58.8z M129.5,61c-3.6,1.8-7.5,2.9-10.4,2.9l0,0
	c-2.6,0-4.3-0.9-4.6-2.5c-0.5-2.8,4.4-7.2,13.4-9.3c4.4-1,8.5-1.5,12.6-1.5c1.5,0,3,0.1,4.6,0.2c-1,0.7-1.9,1.4-2.8,2
	c-1.2-0.1-2.6-0.1-3.8-0.1c-3.4,0-6.9,0.4-10.1,1.3c-8.2,2.2-11.7,5.2-11.4,7.1c0.1,1,1.4,1.7,3.4,1.7l0,0c1.8,0,5.7-0.5,12-3.8
	c3.4-1.7,6.4-3.4,10.1-6h0.3C138.2,56.1,133.8,58.8,129.5,61L129.5,61z"/>
<path id="Shape_7_" sketch:type="MSShapeGroup" class="st0" d="M145.8,50.5h-0.1l0,0l0,0c0.4-0.3,0.7-0.5,1-0.8c0,0,0-0.1-0.1-0.1
	c-0.4,0.4-0.9,0.7-1.2,1c0.1,0,0.3,0,0.4,0.1c0.4-0.3,0.7-0.5,1-0.7l-0.1-0.1C146.4,50,146.1,50.2,145.8,50.5L145.8,50.5z"/>
<path id="Shape_8_" sketch:type="MSShapeGroup" class="st0" d="M146.7,49.7C146.7,49.7,146.7,49.8,146.7,49.7
	c0.7-0.4,1.2-0.8,1.6-1.2l0,0C147.7,48.9,147.2,49.4,146.7,49.7L146.7,49.7z"/>
<path id="Shape_9_" sketch:type="MSShapeGroup" class="st0" d="M148.3,48.5L148.3,48.5c-0.6,0.4-1.1,0.7-1.6,1.1c0,0,0,0.1,0.1,0.1
	C147.2,49.4,147.7,48.9,148.3,48.5L148.3,48.5z"/>
<path id="Shape_10_" sketch:type="MSShapeGroup" class="st0" d="M148.3,48.5c-0.4,0.4-1,0.8-1.5,1.2c0,0,0,0.1,0.1,0.1
	C147.4,49.4,148,49,148.3,48.5L148.3,48.5L148.3,48.5z"/>
<path id="Shape_11_" class="st0" d="M129.4,66.9h2.6v-5.2h3.4v5.2h5.1v2.9h-5.1v7.1c0,1,0.4,2.2,2.4,2.2c0.7,0,2.1-0.1,2.9-0.4v3
	c-1.7,0.2-2.5,0.4-3.7,0.4c-3.2,0-5.1-1-5.1-4.3v-7.9h-2.6L129.4,66.9L129.4,66.9z"/>
<path id="Shape_12_" class="st0" d="M159.3,66.9h3.4v2.2h0.1c0.7-1.2,2.2-2.7,5.2-2.7c0.5,0,0.9,0,1.2,0.1v3.7
	c-0.4-0.1-1-0.3-2.1-0.3c-4.3,0-4.3,2.9-4.4,4v7.9h-3.4V66.9L159.3,66.9z"/>
<path id="Shape_13_" class="st0" d="M125.9,71.5c-0.5-0.7-1.7-2.4-4.8-2.4c-2.5,0-3.3,1-3.3,1.8c0,1.2,1.5,1.3,3.4,1.6
	c4,0.5,7.7,1.1,7.7,4.8c0,4.3-5,4.9-7.4,4.9c-5.1,0-6.7-2.1-8-3.6l2.9-1.7c1.2,1.9,3.2,2.6,5.4,2.6c1.8,0,3.4-0.6,3.4-1.8
	c0-1.1-0.8-1.2-4.5-1.8c-5.6-0.7-6.8-2.5-6.8-4.8c0-1.5,1.2-4.7,7-4.7c1.7,0,5.4,0.4,7.6,3.5L125.9,71.5L125.9,71.5z"/>
<rect id="Rectangle-path" x="108.8" y="61.7" class="st0" width="3.4" height="20.1"/>
<path id="Shape_14_" class="st0" d="M72.9,61.7h3.4v6.8c1.5-1,2.9-2.1,5.7-2.1c4.9,0,7.9,3.3,7.9,7.8c0,5-3.6,8-7.8,8
	c-3.4,0-5.1-1.7-5.9-2.4v1.9H73L72.9,61.7L72.9,61.7z M76.3,77.2c1.3,1,2.7,2.1,5.1,2.1c2.6,0,5.1-1.7,5.1-5c0-3.4-2.6-5-5.2-5
	c-2.5,0-3.9,1.2-4.9,2.1L76.3,77.2L76.3,77.2z"/>
<g id="Group" transform="translate(23.486239, 0.000000)">
	<path id="Shape_15_" class="st0" d="M26.1,61.7h3.4v20.1h-3.4V61.7L26.1,61.7z"/>
	<path id="Shape_16_" class="st0" d="M31.1,74.4c0-4,2.4-7.9,8.3-7.9s8.3,3.9,8.3,7.9c0,5.9-4.3,7.9-8.3,7.9S31.1,80.2,31.1,74.4
		L31.1,74.4z M44.3,74.3c0-3.5-2.2-4.9-4.8-4.9c-2.6,0-4.8,1.5-4.8,4.9c0,3.2,1.8,5.1,4.8,5.1S44.3,77.4,44.3,74.3L44.3,74.3z"/>
</g>
<path id="Shape_17_" class="st0" d="M36.8,71.5v3.2h7c-1,2.8-3.1,4.2-7,4.2c-4.3,0-7.5-2.4-7.5-7.2c0-2.8,1.5-7.1,7.8-7.1
	c4.6,0,5.7,2.4,6.2,3.4h4c-1-5.1-6-6.8-10.6-6.8c-8,0-11.2,5.2-11.2,10.6c0,8,6.2,10.5,11.4,10.5c3.7,0,5.7-1.2,7.3-2.2v1.7h3.4
	V71.5H36.8L36.8,71.5z"/>
<path id="Shape_18_" class="st0" d="M103.3,66.9c-1-0.3-2.3-0.5-3.9-0.5c-2.8,0-6.7,0.7-7.6,4.7h3.6c0.2-0.8,0.9-2,4-2
	c2.8,0,3.8,0.8,3.8,1.9v0.7c-4.8,0.4-12.2,1.1-12.2,6.1c0,3.7,3.8,4.5,5.7,4.5c2.9,0,5.1-1.2,6.5-2v1.5h3.4l0,0v-9.9
	C106.7,70.4,106.6,68,103.3,66.9L103.3,66.9z M97.3,79.6c-1.7,0-2.5-0.8-2.5-2.1c0-1.3,1-2,3.2-2.5c1.6-0.4,3.4-0.7,5.4-0.7v3.4
	C101.9,78.5,99.9,79.6,97.3,79.6L97.3,79.6z"/>
<path id="Shape_19_" class="st0" d="M153.8,66.9c-1-0.3-2.3-0.5-3.9-0.5c-2.8,0-6.7,0.7-7.6,4.7h3.6c0.2-0.8,0.9-2,4-2
	c2.8,0,3.8,0.8,3.8,1.9v0.7c-4.8,0.3-12.3,1-12.3,6c0,3.7,3.8,4.5,5.7,4.5c2.9,0,5.1-1.2,6.5-2v1.5h3.4l0,0v-9.9
	C157.3,70.4,157.2,68,153.8,66.9L153.8,66.9z M147.9,79.6c-1.7,0-2.5-0.8-2.5-2.1c0-1.3,1-2,3.2-2.5c1.6-0.4,3.3-0.7,5.4-0.7v3.4
	C152.5,78.5,150.5,79.6,147.9,79.6L147.9,79.6z"/>
<path id="Shape_20_" sketch:type="MSShapeGroup" class="st0" d="M152.7,47c-1-0.1-2-0.4-2.2-0.6s-0.6-1.2-0.6-2.2
	c0-0.1-0.1-0.1-0.1,0c-0.1,1-0.4,2-0.6,2.2C149,46.6,148,47,147,47c-0.1,0-0.1,0.1-0.1,0.1c0,0.1,0,0.1,0.1,0.1c1,0.1,2,0.4,2.2,0.6
	c0.2,0.2,0.6,1.2,0.6,2.2c0,0.1,0.1,0.1,0.1,0.1l0,0c0.1,0,0.1,0,0.1-0.1c0.1-1,0.4-2,0.6-2.2s1.2-0.6,2.2-0.6
	C152.8,47.1,152.8,47.1,152.7,47C152.8,47.1,152.8,47,152.7,47L152.7,47z"/>
<path id="Shape_21_" sketch:type="MSShapeGroup" class="st0" d="M183.9,63c-3.2-0.1-8.2-1.2-9-2s-1.8-5.7-2-9c0,0,0-0.1-0.1-0.1
	h-0.1c0,0-0.1,0-0.1,0.1c-0.1,3.2-1.2,8.2-2,9s-5.7,1.8-9,2c0,0-0.1,0-0.1,0.1v0.1c0,0,0,0.1,0.1,0.1c3.2,0.1,8.2,1.2,9,2
	c0.7,0.7,1.8,5.7,2,9c0,0,0,0.1,0.1,0.1h0.1c0,0,0.1,0,0.1-0.1c0.1-3.2,1.2-8.2,2-9c0.7-0.7,5.7-1.8,9-2c0,0,0.1,0,0.1-0.1L183.9,63
	L183.9,63L183.9,63z"/>
</svg>
