<?xml version="1.0" encoding="iso-8859-1"?>
<!-- Generator: Adobe Illustrator 18.0.0, SVG Export Plug-In . SVG Version: 6.00 Build 0)  -->
<!DOCTYPE svg PUBLIC "-//W3C//DTD SVG 1.1//EN" "http://www.w3.org/Graphics/SVG/1.1/DTD/svg11.dtd">
<svg version="1.1" id="Capa_1" xmlns="http://www.w3.org/2000/svg" xmlns:xlink="http://www.w3.org/1999/xlink" x="0px" y="0px"
	 viewBox="0 0 492.432 492.432" style="enable-background:new 0 0 492.432 492.432;" xml:space="preserve">
<g>
	<path d="M246.218,103.604c28.562,0,51.8-23.238,51.8-51.802C298.018,23.238,274.78,0,246.218,0
		c-28.564,0-51.802,23.238-51.802,51.802C194.415,80.365,217.654,103.604,246.218,103.604z M246.218,8.5
		c23.876,0,43.3,19.425,43.3,43.302c0,23.876-19.424,43.302-43.3,43.302c-23.877,0-43.302-19.425-43.302-43.302
		C202.915,27.925,222.341,8.5,246.218,8.5z"/>
	<path d="M217.764,206.732l-75.755-29.619c-2.187-0.856-4.651,0.225-5.505,2.41c-0.855,2.186,0.224,4.651,2.411,5.506l75.755,29.619
		c0.508,0.199,1.032,0.293,1.546,0.293c1.699,0,3.303-1.026,3.959-2.703C221.03,210.052,219.951,207.587,217.764,206.732z"/>
	<path d="M217.764,235.077l-75.755-29.619c-2.187-0.855-4.651,0.225-5.505,2.41c-0.855,2.187,0.224,4.651,2.411,5.506l75.755,29.619
		c0.508,0.199,1.032,0.293,1.546,0.293c1.699,0,3.303-1.026,3.959-2.703C221.03,238.397,219.951,235.932,217.764,235.077z"/>
	<path d="M217.764,263.422l-75.755-29.619c-2.187-0.856-4.651,0.224-5.505,2.41c-0.855,2.186,0.224,4.651,2.411,5.506l75.755,29.619
		c0.508,0.199,1.032,0.293,1.546,0.293c1.699,0,3.303-1.026,3.959-2.703C221.03,266.741,219.951,264.276,217.764,263.422z"/>
	<path d="M355.67,187.803l-75.754,29.619c-2.186,0.854-3.265,3.319-2.41,5.506c0.656,1.678,2.26,2.703,3.959,2.703
		c0.515,0,1.038-0.094,1.547-0.293l75.754-29.619c2.186-0.854,3.265-3.319,2.41-5.506
		C360.321,188.027,357.858,186.947,355.67,187.803z"/>
	<path d="M355.67,159.458l-75.754,29.618c-2.186,0.854-3.265,3.319-2.41,5.505c0.656,1.678,2.26,2.704,3.959,2.704
		c0.515,0,1.038-0.094,1.547-0.293l75.754-29.618c2.186-0.855,3.265-3.319,2.41-5.505
		C360.321,159.683,357.858,158.603,355.67,159.458z"/>
	<path d="M355.67,131.113l-75.754,29.618c-2.186,0.855-3.265,3.319-2.41,5.505c0.656,1.678,2.26,2.704,3.959,2.704
		c0.515,0,1.038-0.094,1.547-0.293l75.754-29.618c2.186-0.855,3.265-3.319,2.41-5.505
		C360.321,131.337,357.858,130.258,355.67,131.113z"/>
	<path d="M406.819,72.008c-1.167-0.791-2.648-0.953-3.956-0.433L285.642,118.15c-12.722-7.129-27.312-11.354-39.426-11.354
		c-11.819,0-26.118,4.063-38.642,10.918L89.546,71.566c-1.308-0.512-2.784-0.343-3.944,0.448c-1.16,0.791-1.853,2.105-1.853,3.51
		v184c0,1.75,1.073,3.321,2.703,3.958l90.597,35.422v161.986c0,17.392,14.15,31.541,31.543,31.541s31.543-14.149,31.543-31.541
		V343.193c4.2,0.441,7.967,0.441,12.162,0.001l0.001,117.696c0,17.392,14.151,31.541,31.545,31.541
		c17.393,0,31.543-14.149,31.543-31.541l-0.002-161.411l90.619-36.006c1.618-0.643,2.681-2.208,2.681-3.95v-184
		C408.683,74.116,407.984,72.799,406.819,72.008z M400.183,187.383c-10.957-1.628-19.393-11.097-19.393-22.501
		c0-11.404,8.436-20.872,19.393-22.5V187.383z M246.215,115.296c8.631,0,19.127,2.619,28.88,7.045l-27.619,10.974l-29.197-11.415
		C227.775,117.703,237.758,115.296,246.215,115.296z M92.249,142.393c10.918,1.664,19.309,11.115,19.309,22.49
		s-8.391,20.826-19.309,22.49V142.393z M92.249,195.939c15.618-1.72,27.809-14.989,27.809-31.057
		c0-16.068-12.191-29.337-27.809-31.057V81.75l150.99,59.035v174.873l-150.99-59.035V195.939z M306.885,460.891
		c0,8.401-4.521,15.763-11.257,19.789v-62.4c0-2.347-1.902-4.25-4.25-4.25c-2.348,0-4.25,1.903-4.25,4.25v65.414
		c-1.074,0.154-2.17,0.238-3.286,0.238c-12.707,0-23.045-10.336-23.045-23.041l-0.001-122.59c0-1.257-0.557-2.45-1.521-3.257
		c-0.963-0.808-2.235-1.149-3.473-0.927c-3.395,0.604-6.621,0.909-9.587,0.909c-2.962,0-6.187-0.307-9.587-0.911
		c-1.239-0.219-2.51,0.119-3.474,0.927c-0.964,0.808-1.521,2-1.521,3.258v122.592c0,11.932-9.118,21.773-20.752,22.927V400.28
		c0-2.347-1.903-4.25-4.25-4.25c-2.347,0-4.25,1.903-4.25,4.25v82.794c-9.698-2.718-16.834-11.63-16.834-22.184V302.228
		l60.394,23.613c0.5,0.196,1.025,0.292,1.547,0.292c0.532,0,1.059-0.111,1.558-0.309l0.012,0.008l57.824-22.975L306.885,460.891z
		 M251.739,315.621V140.768l148.443-58.981v52.029c-15.658,1.681-27.893,14.97-27.893,31.067c0,16.097,12.234,29.387,27.893,31.067
		v60.689L251.739,315.621z"/>
	<path d="M291.378,399.298c2.348,0,4.25-1.903,4.25-4.25v-55.497c0-2.347-1.902-4.25-4.25-4.25c-2.348,0-4.25,1.903-4.25,4.25
		v55.497C287.128,397.395,289.03,399.298,291.378,399.298z"/>
</g>
<g>
</g>
<g>
</g>
<g>
</g>
<g>
</g>
<g>
</g>
<g>
</g>
<g>
</g>
<g>
</g>
<g>
</g>
<g>
</g>
<g>
</g>
<g>
</g>
<g>
</g>
<g>
</g>
<g>
</g>
</svg>
